<?xml version="1.0" standalone="no"?><!DOCTYPE svg PUBLIC "-//W3C//DTD SVG 1.1//EN" "http://www.w3.org/Graphics/SVG/1.1/DTD/svg11.dtd"><svg t="1615884653839" class="icon" viewBox="0 0 1024 1024" version="1.1" xmlns="http://www.w3.org/2000/svg" p-id="12104" xmlns:xlink="http://www.w3.org/1999/xlink" width="200" height="200"><defs><style type="text/css"></style></defs><path d="M48.128 202.24v666.624c0 36.352 24.576 60.416 61.952 60.416h803.84c36.864 0 61.952-24.064 61.952-60.416V202.24c0-36.352-24.576-60.416-61.952-60.416h-803.84c-36.864 0-61.952 24.064-61.952 60.416z m61.952 0h803.84V384h-803.84V202.24z m803.84 666.624h-803.84v-181.76h803.84v181.76z m-803.84-242.176V444.416h803.84v181.76l-803.84 0.512z m649.216-364.032h61.952c18.432 0 30.72 12.288 30.72 30.208 0 18.432-12.288 30.208-30.72 30.208h-61.952c-18.432 0-30.72-12.288-30.72-30.208 0-17.92 12.288-30.208 30.72-30.208z m92.672 272.896c0 18.432-12.288 30.208-30.72 30.208h-61.952c-18.432 0-30.72-12.288-30.72-30.208s12.288-30.208 30.72-30.208h61.952c18.432 0 30.72 11.776 30.72 30.208z m-123.392 242.176c0-18.432 12.288-30.208 30.72-30.208h61.952c18.432 0 30.72 12.288 30.72 30.208 0 18.432-12.288 30.208-30.72 30.208h-61.952c-18.432 0.512-30.72-11.776-30.72-30.208z" p-id="12105" fill="#cccccc"></path></svg>